# xmcd
#
# Track frame offsets:
# 150
# 12736
# 29068
# 43155
# 53735
# 71684
# 83869
# 100503
# 109097
# 121783
# 131985
#
# Disc length: 1887 seconds
#
#
# Revision: 0
# Processed by: cddbd v1.5.2PL0 Copyright (c) Steve Scherf et al.
# Submitted via: FreeRIP 2.945 
#
DISCID=99075d0b
DTITLE=Bill Anderson - Bill - Bill
DYEAR=1900
DGENRE=Country
TTITLE0=If You Can Live With It
TTITLE1=Look How I Love You
TTITLE2=Home And Things
TTITLE3=Baby's Blue Again
TTITLE4=# One
TTITLE5=Altogether Now Let's Fall Apart
TTITLE6=Corner Of My Life
TTITLE7=Gonna Shine It On Again
TTITLE8=World Of Make Believe
TTITLE9=I Can't Mend It
TTITLE10=Have You Seen Her
EXTD=
EXTT0=
EXTT1=
EXTT2=
EXTT3=
EXTT4=
EXTT5=
EXTT6=
EXTT7=
EXTT8=
EXTT9=
EXTT10=
PLAYORDER=
